<svg width="72" height="36" viewBox="0 0 72 36" fill="none" xmlns="http://www.w3.org/2000/svg">
<g clip-path="url(#clip0_1_3)">
<path d="M8.416 32.408H6.368C5.94133 32.408 5.728 32.1733 5.728 31.704V29.56C5.728 29.0907 5.94133 28.856 6.368 28.856H7.04C8.384 28.856 9.29067 28.664 9.76 28.28C10.2507 27.9173 10.624 27.2027 10.88 26.136H9.184C8.77867 26.136 8.512 25.912 8.384 25.464L4.64 11.352C4.512 10.904 4.672 10.68 5.12 10.68H7.968C8.39467 10.68 8.66133 10.904 8.768 11.352L11.52 23.16H11.648L14.368 11.352C14.4533 10.904 14.72 10.68 15.168 10.68H17.856C18.3893 10.68 18.6027 10.9147 18.496 11.384L14.592 27C14.1227 28.7707 13.3973 30.1147 12.416 31.032C11.4347 31.9493 10.1013 32.408 8.416 32.408ZM32.8545 27H25.7825C24.0972 27 22.7958 26.552 21.8785 25.656C20.9612 24.76 20.5025 23.4693 20.5025 21.784V15.896C20.5025 14.2107 20.9612 12.92 21.8785 12.024C22.7958 11.128 24.0972 10.68 25.7825 10.68H28.3105C29.9958 10.68 31.2972 11.128 32.2145 12.024C33.1318 12.92 33.5905 14.2107 33.5905 15.896V19.96C33.5905 20.408 33.3665 20.632 32.9185 20.632H24.8865C24.6305 20.632 24.5025 20.7493 24.5025 20.984V21.688C24.5025 22.3493 24.6412 22.8293 24.9185 23.128C25.2172 23.4053 25.7078 23.544 26.3905 23.544H32.8545C33.3025 23.544 33.5265 23.7787 33.5265 24.248V26.36C33.5265 26.5947 33.4732 26.7653 33.3665 26.872C33.2812 26.9573 33.1105 27 32.8545 27ZM24.8865 17.912H29.2385C29.4732 17.912 29.5905 17.7947 29.5905 17.56V16.024C29.5905 15.3413 29.4518 14.8613 29.1745 14.584C28.8972 14.3067 28.4172 14.168 27.7345 14.168H26.3905C25.7078 14.168 25.2278 14.3067 24.9505 14.584C24.6732 14.8613 24.5345 15.3413 24.5345 16.024V17.56C24.5345 17.7947 24.6518 17.912 24.8865 17.912ZM44.443 27H41.595C39.9097 27 38.6083 26.552 37.691 25.656C36.7737 24.76 36.315 23.4693 36.315 21.784V15.896C36.315 14.2107 36.7737 12.92 37.691 12.024C38.6083 11.128 39.9097 10.68 41.595 10.68H44.443C46.107 10.68 47.3977 11.1387 48.315 12.056C49.2537 12.952 49.723 14.232 49.723 15.896V21.784C49.723 23.448 49.2537 24.7387 48.315 25.656C47.3977 26.552 46.107 27 44.443 27ZM42.203 23.512H43.835C44.5177 23.512 44.9977 23.3733 45.275 23.096C45.5737 22.8187 45.723 22.3387 45.723 21.656V16.024C45.723 15.3413 45.5737 14.8613 45.275 14.584C44.9977 14.3067 44.5177 14.168 43.835 14.168H42.203C41.5203 14.168 41.0403 14.3067 40.763 14.584C40.4857 14.8613 40.347 15.3413 40.347 16.024V21.656C40.347 22.3387 40.4857 22.8187 40.763 23.096C41.0403 23.3733 41.5203 23.512 42.203 23.512ZM57.3323 23.48H60.5963C61.2789 23.48 61.7589 23.3413 62.0363 23.064C62.3349 22.7653 62.4843 22.2747 62.4843 21.592V16.024C62.4843 15.3413 62.3349 14.8613 62.0363 14.584C61.7589 14.2853 61.2789 14.136 60.5963 14.136H59.1883C57.7163 14.136 56.9803 14.9467 56.9803 16.568V23.128C56.9803 23.3627 57.0976 23.48 57.3323 23.48ZM52.9163 26.328V5.176C52.9163 4.728 53.1403 4.504 53.5883 4.504H56.3083C56.7563 4.504 56.9803 4.728 56.9803 5.176V12.376H57.1083C57.3429 11.8 57.7589 11.3627 58.3563 11.064C58.9536 10.7653 59.5829 10.616 60.2443 10.616H61.2683C62.9536 10.616 64.2549 11.064 65.1723 11.96C66.0896 12.856 66.5483 14.1467 66.5483 15.832V21.784C66.5483 23.4693 66.0896 24.76 65.1723 25.656C64.2549 26.552 62.9536 27 61.2683 27H53.5883C53.1403 27 52.9163 26.776 52.9163 26.328Z" fill="black"/>
</g>
<defs>
<clipPath id="clip0_1_3">
<rect width="72" height="36" fill="white"/>
</clipPath>
</defs>
</svg>
